# xmcd
#
# Track frame offsets:
#	150
#	12337
#	26549
#	39411
#	56173
#	72635
#	89847
#	106834
#	119771
#	133158
#	147445
#	160907
#	176769
#	193156
#	207218
#	226455
#	241492
#	257579
#
# Disc length: 3678 seconds
#
# Revision: 1
# Processed by: cddbd v1.5.2PL0 Copyright (c) Steve Scherf et al.
# Submitted via: audiograbber 1.83.01
#
DISCID=140e5c12
DTITLE=Various Artist - Promo Only Country Radio August 2010
DYEAR=2010
DGENRE=Country
TTITLE0=The JaneDear Girls  - Wildflower
TTITLE1=Eric Church - Smoke A Little Smoke
TTITLE2=Toby Keith - Trailerhood 
TTITLE3=Steel Magnolia  - Just By Being You (Halo And Wings)
TTITLE4=The Randy Rogers Band - Too Late For Goodbye
TTITLE5=Lady Antebellum -  Our Kind Of Love
TTITLE6=Bo Bice - You Take Yourself With You
TTITLE7=LeAnn Rimes - Swingin
TTITLE8=Billy Currington - Pretty Good At Drinkin' Beer
TTITLE9=Stealing Angels - He Better Be Dead
TTITLE10=Kevin Fowler - Pound Sign (#?*!)
TTITLE11=Julianne Hough - Is That So Wrong
TTITLE12=Blackberry Smoke - Good One Comin' On
TTITLE13=Frankie Ballard - Tell Me You Get Lonely
TTITLE14=Darren Kozelsky - Somebody Find Me A Preacher
TTITLE15=The Warren Brothers - Dear Mr. God
TTITLE16=Sunny Sweeney - From A Table Away
TTITLE17=Miranda Lambert - The House That Built Me (Acoustic Version)
EXTD=
EXTT0=
EXTT1=
EXTT2=
EXTT3=
EXTT4=
EXTT5=
EXTT6=
EXTT7=
EXTT8=
EXTT9=
EXTT10=
EXTT11=
EXTT12=
EXTT13=
EXTT14=
EXTT15=
EXTT16=
EXTT17=
PLAYORDER=
